<svg width="249" height="93" viewBox="0 0 249 93" fill="none" xmlns="http://www.w3.org/2000/svg">
<path d="M222.446 68.0588L230 18H225.09L217.536 64H212.253L211.554 68.0588H222.446Z" fill="#CAAA00"/>
<path d="M70.9861 68.0588H211.554L212.253 64H38.6401L39.8436 68.0588H70.9861Z" fill="#CAAA00"/>
<path d="M49.1775 72.6811L84.5835 87L74.8207 73.4003L49.1775 72.6811Z" fill="#DEBC08"/>
<path d="M49.1775 72.6811L74.8207 73.4003L70.9861 68.0588H39.8436L40.1291 69.0218L49.1775 72.6811Z" fill="#DEBC08"/>
<path d="M220.174 18H25L38.6401 64H212.253L220.174 18Z" fill="#FFD600"/>
<path d="M217.536 64L225.09 18H220.174L212.253 64H217.536Z" fill="#FFD600"/>
<path d="M225.166 69.7568L244.19 75.1512L227.042 87.4767L225.166 69.7568Z" fill="black"/>
<path d="M225.839 67.3486L229.352 58.7443L236.034 66.2432L225.839 67.3486Z" fill="black"/>
<path d="M14.2361 1.00437L22.924 17.8997L2.1687 16.1601L14.2361 1.00437Z" fill="black"/>
<path d="M26.411 15.167L26.3531 5.48422L35.8427 10.3662L26.411 15.167Z" fill="black"/>
<path d="M9.38629 22.4727L19.6228 20.8242L16.2796 29.4181L9.38629 22.4727Z" fill="black"/>
<path d="M210.533 73.6322L219.742 70.5117L217.825 79.5384L210.533 73.6322Z" fill="black"/>
<mask id="path-8-outside-1_4_16" maskUnits="userSpaceOnUse" x="34.9852" y="27.1755" width="183" height="32" fill="black">
<rect fill="white" x="34.9852" y="27.1755" width="183" height="32"/>
<path d="M54.1792 58.1838L50.7249 54.0452C49.769 54.2841 48.7914 54.4036 47.792 54.4036C45.663 54.4036 43.7077 53.9039 41.9263 52.9046C40.1448 51.9053 38.7327 50.5257 37.6899 48.766C36.6471 46.9846 36.1257 44.975 36.1257 42.7373C36.1257 40.5214 36.6471 38.5335 37.6899 36.7738C38.7327 34.9924 40.1448 33.602 41.9263 32.6026C43.7077 31.6033 45.663 31.1036 47.792 31.1036C49.9428 31.1036 51.898 31.6033 53.6578 32.6026C55.4392 33.602 56.8405 34.9924 57.8615 36.7738C58.9043 38.5335 59.4257 40.5214 59.4257 42.7373C59.4257 44.7577 58.9912 46.6044 58.1222 48.2772C57.275 49.9283 56.1127 51.2752 54.6354 52.318L59.8494 58.1838H54.1792ZM40.8183 42.7373C40.8183 44.2581 41.1116 45.5942 41.6982 46.7456C42.2847 47.897 43.0994 48.7877 44.1422 49.4177C45.2068 50.026 46.4233 50.3302 47.792 50.3302C49.1607 50.3302 50.3664 50.026 51.4092 49.4177C52.452 48.7877 53.2667 47.897 53.8533 46.7456C54.4399 45.5942 54.7331 44.2581 54.7331 42.7373C54.7331 41.2166 54.4399 39.8914 53.8533 38.7617C53.2667 37.6102 52.452 36.7304 51.4092 36.1221C50.3664 35.5138 49.1607 35.2096 47.792 35.2096C46.4233 35.2096 45.2068 35.5138 44.1422 36.1221C43.0994 36.7304 42.2847 37.6102 41.6982 38.7617C41.1116 39.8914 40.8183 41.2166 40.8183 42.7373ZM79.9268 36.1221V54.1755H75.3319V51.8944C74.7454 52.6765 73.9741 53.2956 73.0182 53.7519C72.0841 54.1864 71.063 54.4036 69.955 54.4036C68.5429 54.4036 67.2937 54.1103 66.2075 53.5238C65.1212 52.9155 64.2631 52.0356 63.6331 50.8842C63.0248 49.711 62.7206 48.3206 62.7206 46.713V36.1221H67.2829V46.0612C67.2829 47.4951 67.6413 48.6031 68.3582 49.3852C69.0752 50.1455 70.0528 50.5257 71.2911 50.5257C72.5512 50.5257 73.5396 50.1455 74.2566 49.3852C74.9735 48.6031 75.3319 47.4951 75.3319 46.0612V36.1221H79.9268ZM86.7419 33.9713C85.938 33.9713 85.2646 33.7215 84.7214 33.2218C84.2 32.7004 83.9394 32.0595 83.9394 31.2991C83.9394 30.5388 84.2 29.9087 84.7214 29.4091C85.2646 28.8877 85.938 28.627 86.7419 28.627C87.5457 28.627 88.2083 28.8877 88.7297 29.4091C89.2728 29.9087 89.5444 30.5388 89.5444 31.2991C89.5444 32.0595 89.2728 32.7004 88.7297 33.2218C88.2083 33.7215 87.5457 33.9713 86.7419 33.9713ZM88.9904 36.1221V54.1755H84.4282V36.1221H88.9904ZM97.6691 50.428H105.718V54.1755H92.4877V50.4931L100.374 39.8696H92.5203V36.1221H105.62V39.8045L97.6691 50.428ZM141.815 31.4295V54.1755H137.252V39.3808L131.159 54.1755H127.704L121.578 39.3808V54.1755H117.016V31.4295H122.197L129.431 48.3424L136.666 31.4295H141.815ZM145.152 45.0836C145.152 43.2587 145.51 41.6402 146.227 40.2281C146.966 38.816 147.955 37.7297 149.193 36.9694C150.453 36.209 151.854 35.8288 153.397 35.8288C154.744 35.8288 155.917 36.1004 156.916 36.6435C157.937 37.1866 158.752 37.8709 159.36 38.6965V36.1221H163.955V54.1755H159.36V51.5359C158.774 52.3832 157.959 53.0893 156.916 53.6541C155.895 54.1972 154.711 54.4688 153.364 54.4688C151.843 54.4688 150.453 54.0777 149.193 53.2956C147.955 52.5135 146.966 51.4164 146.227 50.0043C145.51 48.5705 145.152 46.9302 145.152 45.0836ZM159.36 45.1488C159.36 44.0408 159.143 43.0958 158.708 42.3137C158.274 41.5099 157.687 40.9016 156.949 40.4888C156.21 40.0543 155.417 39.837 154.57 39.837C153.722 39.837 152.94 40.0434 152.223 40.4562C151.507 40.869 150.92 41.4773 150.464 42.2811C150.029 43.0632 149.812 43.9974 149.812 45.0836C149.812 46.1699 150.029 47.1258 150.464 47.9513C150.92 48.7551 151.507 49.3743 152.223 49.8088C152.962 50.2433 153.744 50.4605 154.57 50.4605C155.417 50.4605 156.21 50.2542 156.949 49.8414C157.687 49.4069 158.274 48.7986 158.708 48.0165C159.143 47.2127 159.36 46.2568 159.36 45.1488ZM178.415 35.8614C180.566 35.8614 182.304 36.5457 183.629 37.9144C184.954 39.2613 185.617 41.1514 185.617 43.5846V54.1755H181.055V44.2038C181.055 42.7699 180.696 41.6728 179.979 40.9124C179.262 40.1303 178.285 39.7393 177.046 39.7393C175.786 39.7393 174.787 40.1303 174.048 40.9124C173.331 41.6728 172.973 42.7699 172.973 44.2038V54.1755H168.411V36.1221H172.973V38.3706C173.581 37.5885 174.353 36.9802 175.287 36.5457C176.243 36.0895 177.285 35.8614 178.415 35.8614ZM192.269 33.9713C191.465 33.9713 190.792 33.7215 190.249 33.2218C189.727 32.7004 189.467 32.0595 189.467 31.2991C189.467 30.5388 189.727 29.9087 190.249 29.4091C190.792 28.8877 191.465 28.627 192.269 28.627C193.073 28.627 193.736 28.8877 194.257 29.4091C194.8 29.9087 195.072 30.5388 195.072 31.2991C195.072 32.0595 194.8 32.7004 194.257 33.2218C193.736 33.7215 193.073 33.9713 192.269 33.9713ZM194.518 36.1221V54.1755H189.955V36.1221H194.518ZM197.852 45.0836C197.852 43.2587 198.21 41.6402 198.927 40.2281C199.666 38.816 200.654 37.7297 201.893 36.9694C203.153 36.209 204.554 35.8288 206.097 35.8288C207.444 35.8288 208.617 36.1004 209.616 36.6435C210.637 37.1866 211.452 37.8709 212.06 38.6965V36.1221H216.655V54.1755H212.06V51.5359C211.473 52.3832 210.659 53.0893 209.616 53.6541C208.595 54.1972 207.411 54.4688 206.064 54.4688C204.543 54.4688 203.153 54.0777 201.893 53.2956C200.654 52.5135 199.666 51.4164 198.927 50.0043C198.21 48.5705 197.852 46.9302 197.852 45.0836ZM212.06 45.1488C212.06 44.0408 211.843 43.0958 211.408 42.3137C210.974 41.5099 210.387 40.9016 209.649 40.4888C208.91 40.0543 208.117 39.837 207.27 39.837C206.422 39.837 205.64 40.0434 204.923 40.4562C204.206 40.869 203.62 41.4773 203.164 42.2811C202.729 43.0632 202.512 43.9974 202.512 45.0836C202.512 46.1699 202.729 47.1258 203.164 47.9513C203.62 48.7551 204.206 49.3743 204.923 49.8088C205.662 50.2433 206.444 50.4605 207.27 50.4605C208.117 50.4605 208.91 50.2542 209.649 49.8414C210.387 49.4069 210.974 48.7986 211.408 48.0165C211.843 47.2127 212.06 46.2568 212.06 45.1488Z"/>
</mask>
<path d="M54.1792 58.1838L50.7249 54.0452C49.769 54.2841 48.7914 54.4036 47.792 54.4036C45.663 54.4036 43.7077 53.9039 41.9263 52.9046C40.1448 51.9053 38.7327 50.5257 37.6899 48.766C36.6471 46.9846 36.1257 44.975 36.1257 42.7373C36.1257 40.5214 36.6471 38.5335 37.6899 36.7738C38.7327 34.9924 40.1448 33.602 41.9263 32.6026C43.7077 31.6033 45.663 31.1036 47.792 31.1036C49.9428 31.1036 51.898 31.6033 53.6578 32.6026C55.4392 33.602 56.8405 34.9924 57.8615 36.7738C58.9043 38.5335 59.4257 40.5214 59.4257 42.7373C59.4257 44.7577 58.9912 46.6044 58.1222 48.2772C57.275 49.9283 56.1127 51.2752 54.6354 52.318L59.8494 58.1838H54.1792ZM40.8183 42.7373C40.8183 44.2581 41.1116 45.5942 41.6982 46.7456C42.2847 47.897 43.0994 48.7877 44.1422 49.4177C45.2068 50.026 46.4233 50.3302 47.792 50.3302C49.1607 50.3302 50.3664 50.026 51.4092 49.4177C52.452 48.7877 53.2667 47.897 53.8533 46.7456C54.4399 45.5942 54.7331 44.2581 54.7331 42.7373C54.7331 41.2166 54.4399 39.8914 53.8533 38.7617C53.2667 37.6102 52.452 36.7304 51.4092 36.1221C50.3664 35.5138 49.1607 35.2096 47.792 35.2096C46.4233 35.2096 45.2068 35.5138 44.1422 36.1221C43.0994 36.7304 42.2847 37.6102 41.6982 38.7617C41.1116 39.8914 40.8183 41.2166 40.8183 42.7373ZM79.9268 36.1221V54.1755H75.3319V51.8944C74.7454 52.6765 73.9741 53.2956 73.0182 53.7519C72.0841 54.1864 71.063 54.4036 69.955 54.4036C68.5429 54.4036 67.2937 54.1103 66.2075 53.5238C65.1212 52.9155 64.2631 52.0356 63.6331 50.8842C63.0248 49.711 62.7206 48.3206 62.7206 46.713V36.1221H67.2829V46.0612C67.2829 47.4951 67.6413 48.6031 68.3582 49.3852C69.0752 50.1455 70.0528 50.5257 71.2911 50.5257C72.5512 50.5257 73.5396 50.1455 74.2566 49.3852C74.9735 48.6031 75.3319 47.4951 75.3319 46.0612V36.1221H79.9268ZM86.7419 33.9713C85.938 33.9713 85.2646 33.7215 84.7214 33.2218C84.2 32.7004 83.9394 32.0595 83.9394 31.2991C83.9394 30.5388 84.2 29.9087 84.7214 29.4091C85.2646 28.8877 85.938 28.627 86.7419 28.627C87.5457 28.627 88.2083 28.8877 88.7297 29.4091C89.2728 29.9087 89.5444 30.5388 89.5444 31.2991C89.5444 32.0595 89.2728 32.7004 88.7297 33.2218C88.2083 33.7215 87.5457 33.9713 86.7419 33.9713ZM88.9904 36.1221V54.1755H84.4282V36.1221H88.9904ZM97.6691 50.428H105.718V54.1755H92.4877V50.4931L100.374 39.8696H92.5203V36.1221H105.62V39.8045L97.6691 50.428ZM141.815 31.4295V54.1755H137.252V39.3808L131.159 54.1755H127.704L121.578 39.3808V54.1755H117.016V31.4295H122.197L129.431 48.3424L136.666 31.4295H141.815ZM145.152 45.0836C145.152 43.2587 145.51 41.6402 146.227 40.2281C146.966 38.816 147.955 37.7297 149.193 36.9694C150.453 36.209 151.854 35.8288 153.397 35.8288C154.744 35.8288 155.917 36.1004 156.916 36.6435C157.937 37.1866 158.752 37.8709 159.36 38.6965V36.1221H163.955V54.1755H159.36V51.5359C158.774 52.3832 157.959 53.0893 156.916 53.6541C155.895 54.1972 154.711 54.4688 153.364 54.4688C151.843 54.4688 150.453 54.0777 149.193 53.2956C147.955 52.5135 146.966 51.4164 146.227 50.0043C145.51 48.5705 145.152 46.9302 145.152 45.0836ZM159.36 45.1488C159.36 44.0408 159.143 43.0958 158.708 42.3137C158.274 41.5099 157.687 40.9016 156.949 40.4888C156.21 40.0543 155.417 39.837 154.57 39.837C153.722 39.837 152.94 40.0434 152.223 40.4562C151.507 40.869 150.92 41.4773 150.464 42.2811C150.029 43.0632 149.812 43.9974 149.812 45.0836C149.812 46.1699 150.029 47.1258 150.464 47.9513C150.92 48.7551 151.507 49.3743 152.223 49.8088C152.962 50.2433 153.744 50.4605 154.57 50.4605C155.417 50.4605 156.21 50.2542 156.949 49.8414C157.687 49.4069 158.274 48.7986 158.708 48.0165C159.143 47.2127 159.36 46.2568 159.36 45.1488ZM178.415 35.8614C180.566 35.8614 182.304 36.5457 183.629 37.9144C184.954 39.2613 185.617 41.1514 185.617 43.5846V54.1755H181.055V44.2038C181.055 42.7699 180.696 41.6728 179.979 40.9124C179.262 40.1303 178.285 39.7393 177.046 39.7393C175.786 39.7393 174.787 40.1303 174.048 40.9124C173.331 41.6728 172.973 42.7699 172.973 44.2038V54.1755H168.411V36.1221H172.973V38.3706C173.581 37.5885 174.353 36.9802 175.287 36.5457C176.243 36.0895 177.285 35.8614 178.415 35.8614ZM192.269 33.9713C191.465 33.9713 190.792 33.7215 190.249 33.2218C189.727 32.7004 189.467 32.0595 189.467 31.2991C189.467 30.5388 189.727 29.9087 190.249 29.4091C190.792 28.8877 191.465 28.627 192.269 28.627C193.073 28.627 193.736 28.8877 194.257 29.4091C194.8 29.9087 195.072 30.5388 195.072 31.2991C195.072 32.0595 194.8 32.7004 194.257 33.2218C193.736 33.7215 193.073 33.9713 192.269 33.9713ZM194.518 36.1221V54.1755H189.955V36.1221H194.518ZM197.852 45.0836C197.852 43.2587 198.21 41.6402 198.927 40.2281C199.666 38.816 200.654 37.7297 201.893 36.9694C203.153 36.209 204.554 35.8288 206.097 35.8288C207.444 35.8288 208.617 36.1004 209.616 36.6435C210.637 37.1866 211.452 37.8709 212.06 38.6965V36.1221H216.655V54.1755H212.06V51.5359C211.473 52.3832 210.659 53.0893 209.616 53.6541C208.595 54.1972 207.411 54.4688 206.064 54.4688C204.543 54.4688 203.153 54.0777 201.893 53.2956C200.654 52.5135 199.666 51.4164 198.927 50.0043C198.21 48.5705 197.852 46.9302 197.852 45.0836ZM212.06 45.1488C212.06 44.0408 211.843 43.0958 211.408 42.3137C210.974 41.5099 210.387 40.9016 209.649 40.4888C208.91 40.0543 208.117 39.837 207.27 39.837C206.422 39.837 205.64 40.0434 204.923 40.4562C204.206 40.869 203.62 41.4773 203.164 42.2811C202.729 43.0632 202.512 43.9974 202.512 45.0836C202.512 46.1699 202.729 47.1258 203.164 47.9513C203.62 48.7551 204.206 49.3743 204.923 49.8088C205.662 50.2433 206.444 50.4605 207.27 50.4605C208.117 50.4605 208.91 50.2542 209.649 49.8414C210.387 49.4069 210.974 48.7986 211.408 48.0165C211.843 47.2127 212.06 46.2568 212.06 45.1488Z" fill="black"/>
<path d="M54.1792 58.1838L50.7249 54.0452C49.769 54.2841 48.7914 54.4036 47.792 54.4036C45.663 54.4036 43.7077 53.9039 41.9263 52.9046C40.1448 51.9053 38.7327 50.5257 37.6899 48.766C36.6471 46.9846 36.1257 44.975 36.1257 42.7373C36.1257 40.5214 36.6471 38.5335 37.6899 36.7738C38.7327 34.9924 40.1448 33.602 41.9263 32.6026C43.7077 31.6033 45.663 31.1036 47.792 31.1036C49.9428 31.1036 51.898 31.6033 53.6578 32.6026C55.4392 33.602 56.8405 34.9924 57.8615 36.7738C58.9043 38.5335 59.4257 40.5214 59.4257 42.7373C59.4257 44.7577 58.9912 46.6044 58.1222 48.2772C57.275 49.9283 56.1127 51.2752 54.6354 52.318L59.8494 58.1838H54.1792ZM40.8183 42.7373C40.8183 44.2581 41.1116 45.5942 41.6982 46.7456C42.2847 47.897 43.0994 48.7877 44.1422 49.4177C45.2068 50.026 46.4233 50.3302 47.792 50.3302C49.1607 50.3302 50.3664 50.026 51.4092 49.4177C52.452 48.7877 53.2667 47.897 53.8533 46.7456C54.4399 45.5942 54.7331 44.2581 54.7331 42.7373C54.7331 41.2166 54.4399 39.8914 53.8533 38.7617C53.2667 37.6102 52.452 36.7304 51.4092 36.1221C50.3664 35.5138 49.1607 35.2096 47.792 35.2096C46.4233 35.2096 45.2068 35.5138 44.1422 36.1221C43.0994 36.7304 42.2847 37.6102 41.6982 38.7617C41.1116 39.8914 40.8183 41.2166 40.8183 42.7373ZM79.9268 36.1221V54.1755H75.3319V51.8944C74.7454 52.6765 73.9741 53.2956 73.0182 53.7519C72.0841 54.1864 71.063 54.4036 69.955 54.4036C68.5429 54.4036 67.2937 54.1103 66.2075 53.5238C65.1212 52.9155 64.2631 52.0356 63.6331 50.8842C63.0248 49.711 62.7206 48.3206 62.7206 46.713V36.1221H67.2829V46.0612C67.2829 47.4951 67.6413 48.6031 68.3582 49.3852C69.0752 50.1455 70.0528 50.5257 71.2911 50.5257C72.5512 50.5257 73.5396 50.1455 74.2566 49.3852C74.9735 48.6031 75.3319 47.4951 75.3319 46.0612V36.1221H79.9268ZM86.7419 33.9713C85.938 33.9713 85.2646 33.7215 84.7214 33.2218C84.2 32.7004 83.9394 32.0595 83.9394 31.2991C83.9394 30.5388 84.2 29.9087 84.7214 29.4091C85.2646 28.8877 85.938 28.627 86.7419 28.627C87.5457 28.627 88.2083 28.8877 88.7297 29.4091C89.2728 29.9087 89.5444 30.5388 89.5444 31.2991C89.5444 32.0595 89.2728 32.7004 88.7297 33.2218C88.2083 33.7215 87.5457 33.9713 86.7419 33.9713ZM88.9904 36.1221V54.1755H84.4282V36.1221H88.9904ZM97.6691 50.428H105.718V54.1755H92.4877V50.4931L100.374 39.8696H92.5203V36.1221H105.62V39.8045L97.6691 50.428ZM141.815 31.4295V54.1755H137.252V39.3808L131.159 54.1755H127.704L121.578 39.3808V54.1755H117.016V31.4295H122.197L129.431 48.3424L136.666 31.4295H141.815ZM145.152 45.0836C145.152 43.2587 145.51 41.6402 146.227 40.2281C146.966 38.816 147.955 37.7297 149.193 36.9694C150.453 36.209 151.854 35.8288 153.397 35.8288C154.744 35.8288 155.917 36.1004 156.916 36.6435C157.937 37.1866 158.752 37.8709 159.36 38.6965V36.1221H163.955V54.1755H159.36V51.5359C158.774 52.3832 157.959 53.0893 156.916 53.6541C155.895 54.1972 154.711 54.4688 153.364 54.4688C151.843 54.4688 150.453 54.0777 149.193 53.2956C147.955 52.5135 146.966 51.4164 146.227 50.0043C145.51 48.5705 145.152 46.9302 145.152 45.0836ZM159.36 45.1488C159.36 44.0408 159.143 43.0958 158.708 42.3137C158.274 41.5099 157.687 40.9016 156.949 40.4888C156.21 40.0543 155.417 39.837 154.57 39.837C153.722 39.837 152.94 40.0434 152.223 40.4562C151.507 40.869 150.92 41.4773 150.464 42.2811C150.029 43.0632 149.812 43.9974 149.812 45.0836C149.812 46.1699 150.029 47.1258 150.464 47.9513C150.92 48.7551 151.507 49.3743 152.223 49.8088C152.962 50.2433 153.744 50.4605 154.57 50.4605C155.417 50.4605 156.21 50.2542 156.949 49.8414C157.687 49.4069 158.274 48.7986 158.708 48.0165C159.143 47.2127 159.36 46.2568 159.36 45.1488ZM178.415 35.8614C180.566 35.8614 182.304 36.5457 183.629 37.9144C184.954 39.2613 185.617 41.1514 185.617 43.5846V54.1755H181.055V44.2038C181.055 42.7699 180.696 41.6728 179.979 40.9124C179.262 40.1303 178.285 39.7393 177.046 39.7393C175.786 39.7393 174.787 40.1303 174.048 40.9124C173.331 41.6728 172.973 42.7699 172.973 44.2038V54.1755H168.411V36.1221H172.973V38.3706C173.581 37.5885 174.353 36.9802 175.287 36.5457C176.243 36.0895 177.285 35.8614 178.415 35.8614ZM192.269 33.9713C191.465 33.9713 190.792 33.7215 190.249 33.2218C189.727 32.7004 189.467 32.0595 189.467 31.2991C189.467 30.5388 189.727 29.9087 190.249 29.4091C190.792 28.8877 191.465 28.627 192.269 28.627C193.073 28.627 193.736 28.8877 194.257 29.4091C194.8 29.9087 195.072 30.5388 195.072 31.2991C195.072 32.0595 194.8 32.7004 194.257 33.2218C193.736 33.7215 193.073 33.9713 192.269 33.9713ZM194.518 36.1221V54.1755H189.955V36.1221H194.518ZM197.852 45.0836C197.852 43.2587 198.21 41.6402 198.927 40.2281C199.666 38.816 200.654 37.7297 201.893 36.9694C203.153 36.209 204.554 35.8288 206.097 35.8288C207.444 35.8288 208.617 36.1004 209.616 36.6435C210.637 37.1866 211.452 37.8709 212.06 38.6965V36.1221H216.655V54.1755H212.06V51.5359C211.473 52.3832 210.659 53.0893 209.616 53.6541C208.595 54.1972 207.411 54.4688 206.064 54.4688C204.543 54.4688 203.153 54.0777 201.893 53.2956C200.654 52.5135 199.666 51.4164 198.927 50.0043C198.21 48.5705 197.852 46.9302 197.852 45.0836ZM212.06 45.1488C212.06 44.0408 211.843 43.0958 211.408 42.3137C210.974 41.5099 210.387 40.9016 209.649 40.4888C208.91 40.0543 208.117 39.837 207.27 39.837C206.422 39.837 205.64 40.0434 204.923 40.4562C204.206 40.869 203.62 41.4773 203.164 42.2811C202.729 43.0632 202.512 43.9974 202.512 45.0836C202.512 46.1699 202.729 47.1258 203.164 47.9513C203.62 48.7551 204.206 49.3743 204.923 49.8088C205.662 50.2433 206.444 50.4605 207.27 50.4605C208.117 50.4605 208.91 50.2542 209.649 49.8414C210.387 49.4069 210.974 48.7986 211.408 48.0165C211.843 47.2127 212.06 46.2568 212.06 45.1488Z" fill="#0038FE" fill-opacity="0.22"/>
<path d="M54.1792 58.1838L53.6623 58.6151L53.8642 58.8569H54.1792V58.1838ZM50.7249 54.0452L51.2417 53.6138L50.9712 53.2897L50.5616 53.3921L50.7249 54.0452ZM41.9263 52.9046L42.2556 52.3175L41.9263 52.9046ZM37.6899 48.766L37.109 49.1061L37.1108 49.1092L37.6899 48.766ZM37.6899 36.7738L38.2691 37.117L38.2709 37.1139L37.6899 36.7738ZM41.9263 32.6026L41.5969 32.0155L41.5969 32.0155L41.9263 32.6026ZM53.6578 32.6026L53.3253 33.188L53.3284 33.1897L53.6578 32.6026ZM57.8615 36.7738L57.2774 37.1086L57.2824 37.117L57.8615 36.7738ZM58.1222 48.2772L57.5249 47.9669L57.5233 47.9698L58.1222 48.2772ZM54.6354 52.318L54.2472 51.7681L53.6319 52.2024L54.1322 52.7653L54.6354 52.318ZM59.8494 58.1838V58.8569H61.3484L60.3525 57.7365L59.8494 58.1838ZM41.6982 46.7456L42.298 46.44L42.298 46.44L41.6982 46.7456ZM44.1422 49.4177L43.7941 49.9939L43.8011 49.9982L43.8082 50.0022L44.1422 49.4177ZM51.4092 49.4177L51.7485 49.9993L51.7573 49.9939L51.4092 49.4177ZM53.8533 46.7456L54.4531 47.0511L54.4531 47.0511L53.8533 46.7456ZM53.8533 38.7617L53.2534 39.0672L53.2558 39.0719L53.8533 38.7617ZM51.4092 36.1221L51.07 36.7035L51.07 36.7035L51.4092 36.1221ZM44.1422 36.1221L43.8082 35.5376L43.803 35.5406L44.1422 36.1221ZM41.6982 38.7617L42.2956 39.0719L42.298 39.0672L41.6982 38.7617ZM54.696 57.7524L51.2417 53.6138L50.2081 54.4765L53.6623 58.6151L54.696 57.7524ZM50.5616 53.3921C49.6599 53.6175 48.7371 53.7305 47.792 53.7305V55.0768C48.8456 55.0768 49.8781 54.9507 50.8882 54.6982L50.5616 53.3921ZM47.792 53.7305C45.7732 53.7305 43.9321 53.258 42.2556 52.3175L41.5969 53.4917C43.4833 54.5499 45.5527 55.0768 47.792 55.0768V53.7305ZM42.2556 52.3175C40.5776 51.3762 39.2516 50.0808 38.269 48.4228L37.1108 49.1092C38.2139 50.9706 39.7121 52.4343 41.5969 53.4917L42.2556 52.3175ZM38.2709 48.4259C37.2935 46.7562 36.7989 44.8658 36.7989 42.7373H35.4526C35.4526 45.0842 36.0008 47.2129 37.109 49.1061L38.2709 48.4259ZM36.7989 42.7373C36.7989 40.6317 37.2929 38.7642 38.269 37.117L37.1108 36.4306C36.0013 38.3029 35.4526 40.411 35.4526 42.7373H36.7989ZM38.2709 37.1139C39.2539 35.4345 40.5797 34.1299 42.2556 33.1897L41.5969 32.0155C39.71 33.0741 38.2115 34.5502 37.109 36.4338L38.2709 37.1139ZM42.2556 33.1897C43.9321 32.2493 45.7732 31.7768 47.792 31.7768V30.4305C45.5527 30.4305 43.4833 30.9573 41.5969 32.0155L42.2556 33.1897ZM47.792 31.7768C49.8338 31.7768 51.6733 32.2498 53.3253 33.188L53.9902 32.0173C52.1227 30.9568 50.0518 30.4305 47.792 30.4305V31.7768ZM53.3284 33.1897C55.0031 34.1292 56.3166 35.4321 57.2775 37.1086L58.4456 36.4391C57.3643 34.5526 55.8753 33.0748 53.9871 32.0155L53.3284 33.1897ZM57.2824 37.117C58.2585 38.7642 58.7526 40.6317 58.7526 42.7373H60.0989C60.0989 40.411 59.5501 38.3029 58.4407 36.4306L57.2824 37.117ZM58.7526 42.7373C58.7526 44.6577 58.3405 46.3967 57.5249 47.9669L58.7196 48.5875C59.6419 46.812 60.0989 44.8578 60.0989 42.7373H58.7526ZM57.5233 47.9698C56.7243 49.5269 55.6333 50.7896 54.2472 51.7681L55.0236 52.868C56.5921 51.7608 57.8256 50.3297 58.7211 48.5845L57.5233 47.9698ZM54.1322 52.7653L59.3462 58.631L60.3525 57.7365L55.1385 51.8708L54.1322 52.7653ZM59.8494 57.5106H54.1792V58.8569H59.8494V57.5106ZM40.1451 42.7373C40.1451 44.3456 40.4557 45.7897 41.0984 47.0511L42.298 46.44C41.7675 45.3986 41.4915 44.1706 41.4915 42.7373H40.1451ZM41.0984 47.0511C41.7383 48.3074 42.6372 49.2949 43.7941 49.9939L44.4903 48.8416C43.5617 48.2805 42.8312 47.4866 42.298 46.44L41.0984 47.0511ZM43.8082 50.0022C44.9859 50.6752 46.3201 51.0034 47.792 51.0034V49.657C46.5266 49.657 45.4276 49.3769 44.4762 48.8333L43.8082 50.0022ZM47.792 51.0034C49.2636 51.0034 50.5895 50.6753 51.7484 49.9992L51.07 48.8363C50.1434 49.3768 49.0577 49.657 47.792 49.657V51.0034ZM51.7573 49.9939C52.9142 49.2949 53.8131 48.3074 54.4531 47.0511L53.2535 46.44C52.7203 47.4866 51.9898 48.2805 51.0611 48.8416L51.7573 49.9939ZM54.4531 47.0511C55.0957 45.7897 55.4063 44.3456 55.4063 42.7373H54.06C54.06 44.1706 53.784 45.3986 53.2535 46.44L54.4531 47.0511ZM55.4063 42.7373C55.4063 41.1295 55.0959 39.694 54.4507 38.4515L53.2558 39.0719C53.7839 40.0888 54.06 41.3037 54.06 42.7373H55.4063ZM54.4531 38.4561C53.8122 37.1981 52.9107 36.2186 51.7484 35.5406L51.07 36.7035C51.9934 37.2422 52.7212 38.0224 53.2535 39.0672L54.4531 38.4561ZM51.7484 35.5406C50.5895 34.8646 49.2636 34.5365 47.792 34.5365V35.8828C49.0577 35.8828 50.1434 36.163 51.07 36.7035L51.7484 35.5406ZM47.792 34.5365C46.3201 34.5365 44.9859 34.8646 43.8082 35.5376L44.4762 36.7066C45.4276 36.1629 46.5266 35.8828 47.792 35.8828V34.5365ZM43.803 35.5406C42.6408 36.2186 41.7392 37.1981 41.0984 38.4561L42.298 39.0672C42.8303 38.0224 43.5581 37.2422 44.4814 36.7035L43.803 35.5406ZM41.1007 38.4515C40.4556 39.694 40.1451 41.1295 40.1451 42.7373H41.4915C41.4915 41.3037 41.7676 40.0888 42.2956 39.0719L41.1007 38.4515ZM79.9268 36.1221H80.5999V35.4489H79.9268V36.1221ZM79.9268 54.1755V54.8487H80.5999V54.1755H79.9268ZM75.3319 54.1755H74.6588V54.8487H75.3319V54.1755ZM75.3319 51.8944H76.0051V49.8749L74.7934 51.4905L75.3319 51.8944ZM73.0182 53.7519L73.3022 54.3623L73.3082 54.3594L73.0182 53.7519ZM66.2075 53.5238L65.8785 54.1112L65.8876 54.1161L66.2075 53.5238ZM63.6331 50.8842L63.0355 51.194L63.0389 51.2007L63.0425 51.2073L63.6331 50.8842ZM62.7206 36.1221V35.4489H62.0475V36.1221H62.7206ZM67.2829 36.1221H67.956V35.4489H67.2829V36.1221ZM68.3582 49.3852L67.862 49.8401L67.8685 49.847L68.3582 49.3852ZM74.2566 49.3852L74.7464 49.847L74.7528 49.84L74.2566 49.3852ZM75.3319 36.1221V35.4489H74.6588V36.1221H75.3319ZM79.2536 36.1221V54.1755H80.5999V36.1221H79.2536ZM79.9268 53.5023H75.3319V54.8487H79.9268V53.5023ZM76.0051 54.1755V51.8944H74.6588V54.1755H76.0051ZM74.7934 51.4905C74.2774 52.1785 73.5945 52.7309 72.7283 53.1443L73.3082 54.3594C74.3538 53.8604 75.2134 53.1745 75.8705 52.2983L74.7934 51.4905ZM72.7343 53.1415C71.8957 53.5316 70.9724 53.7305 69.955 53.7305V55.0768C71.1536 55.0768 72.2725 54.8412 73.3021 54.3622L72.7343 53.1415ZM69.955 53.7305C68.6383 53.7305 67.502 53.4577 66.5273 52.9314L65.8876 54.1161C67.0855 54.7629 68.4475 55.0768 69.955 55.0768V53.7305ZM66.5364 52.9364C65.5665 52.3933 64.7964 51.6079 64.2236 50.5611L63.0425 51.2073C63.7298 52.4633 64.6759 53.4376 65.8786 54.1111L66.5364 52.9364ZM64.2307 50.5743C63.6817 49.5155 63.3938 48.2359 63.3938 46.713H62.0475C62.0475 48.4054 62.3679 49.9066 63.0355 51.194L64.2307 50.5743ZM63.3938 46.713V36.1221H62.0475V46.713H63.3938ZM62.7206 36.7952H67.2829V35.4489H62.7206V36.7952ZM66.6097 36.1221V46.0612H67.956V36.1221H66.6097ZM66.6097 46.0612C66.6097 47.6034 66.9963 48.8957 67.862 49.84L68.8545 48.9303C68.2863 48.3105 67.956 47.3867 67.956 46.0612H66.6097ZM67.8685 49.847C68.736 50.7671 69.9046 51.1989 71.2911 51.1989V49.8525C70.201 49.8525 69.4143 49.524 68.848 48.9234L67.8685 49.847ZM71.2911 51.1989C72.6954 51.1989 73.8765 50.7695 74.7464 49.847L73.7668 48.9234C73.2028 49.5216 72.4069 49.8525 71.2911 49.8525V51.1989ZM74.7528 49.84C75.6185 48.8957 76.0051 47.6034 76.0051 46.0612H74.6588C74.6588 47.3867 74.3285 48.3105 73.7603 48.9303L74.7528 49.84ZM76.0051 46.0612V36.1221H74.6588V46.0612H76.0051ZM75.3319 36.7952H79.9268V35.4489H75.3319V36.7952ZM84.7214 33.2218L84.2454 33.6978L84.2554 33.7077L84.2657 33.7172L84.7214 33.2218ZM84.7214 29.4091L85.1872 29.8951L85.1876 29.8947L84.7214 29.4091ZM88.7297 29.4091L88.2537 29.8851L88.2636 29.895L88.2739 29.9045L88.7297 29.4091ZM88.7297 33.2218L89.1955 33.7078L89.1959 33.7074L88.7297 33.2218ZM88.9904 36.1221H89.6636V35.4489H88.9904V36.1221ZM88.9904 54.1755V54.8487H89.6636V54.1755H88.9904ZM84.4282 54.1755H83.755V54.8487H84.4282V54.1755ZM84.4282 36.1221V35.4489H83.755V36.1221H84.4282ZM86.7419 33.2981C86.0905 33.2981 85.5845 33.1011 85.1772 32.7264L84.2657 33.7172C84.9446 34.3418 85.7856 34.6445 86.7419 34.6445V33.2981ZM85.1974 32.7458C84.8066 32.355 84.6125 31.8872 84.6125 31.2991H83.2662C83.2662 32.2318 83.5935 33.0458 84.2454 33.6978L85.1974 32.7458ZM84.6125 31.2991C84.6125 30.7114 84.806 30.2605 85.1872 29.8951L84.2557 28.9231C83.5941 29.557 83.2662 30.3661 83.2662 31.2991H84.6125ZM85.1876 29.8947C85.5964 29.5023 86.0989 29.3001 86.7419 29.3001V27.9538C85.7772 27.9538 84.9328 28.273 84.2553 28.9235L85.1876 29.8947ZM86.7419 29.3001C87.3849 29.3001 87.8705 29.5019 88.2537 29.8851L89.2057 28.9331C88.5461 28.2734 87.7065 27.9538 86.7419 27.9538V29.3001ZM88.2739 29.9045C88.6738 30.2724 88.8712 30.7206 88.8712 31.2991H90.2176C90.2176 30.357 89.8718 29.5451 89.1855 28.9137L88.2739 29.9045ZM88.8712 31.2991C88.8712 31.8783 88.6729 32.3431 88.2635 32.7362L89.1959 33.7074C89.8727 33.0577 90.2176 32.2408 90.2176 31.2991H88.8712ZM88.2639 32.7358C87.8825 33.1014 87.3935 33.2981 86.7419 33.2981V34.6445C87.6979 34.6445 88.5341 34.3416 89.1955 33.7078L88.2639 32.7358ZM88.3172 36.1221V54.1755H89.6636V36.1221H88.3172ZM88.9904 53.5023H84.4282V54.8487H88.9904V53.5023ZM85.1013 54.1755V36.1221H83.755V54.1755H85.1013ZM84.4282 36.7952H88.9904V35.4489H84.4282V36.7952ZM97.6691 50.428L97.1302 50.0246L96.3244 51.1011H97.6691V50.428ZM105.718 50.428H106.391V49.7548H105.718V50.428ZM105.718 54.1755V54.8487H106.391V54.1755H105.718ZM92.4877 54.1755H91.8145V54.8487H92.4877V54.1755ZM92.4877 50.4931L91.9472 50.0919L91.8145 50.2706V50.4931H92.4877ZM100.374 39.8696L100.914 40.2709L101.712 39.1965H100.374V39.8696ZM92.5203 39.8696H91.8471V40.5428H92.5203V39.8696ZM92.5203 36.1221V35.4489H91.8471V36.1221H92.5203ZM105.62 36.1221H106.294V35.4489H105.62V36.1221ZM105.62 39.8045L106.159 40.2078L106.294 40.0285V39.8045H105.62ZM97.6691 51.1011H105.718V49.7548H97.6691V51.1011ZM105.045 50.428V54.1755H106.391V50.428H105.045ZM105.718 53.5023H92.4877V54.8487H105.718V53.5023ZM93.1609 54.1755V50.4931H91.8145V54.1755H93.1609ZM93.0282 50.8944L100.914 40.2709L99.8333 39.4684L91.9472 50.0919L93.0282 50.8944ZM100.374 39.1965H92.5203V40.5428H100.374V39.1965ZM93.1934 39.8696V36.1221H91.8471V39.8696H93.1934ZM92.5203 36.7952H105.62V35.4489H92.5203V36.7952ZM104.947 36.1221V39.8045H106.294V36.1221H104.947ZM105.081 39.4011L97.1302 50.0246L98.208 50.8313L106.159 40.2078L105.081 39.4011ZM141.815 31.4295H142.488V30.7563H141.815V31.4295ZM141.815 54.1755V54.8487H142.488V54.1755H141.815ZM137.252 54.1755H136.579V54.8487H137.252V54.1755ZM137.252 39.3808H137.926L136.63 39.1244L137.252 39.3808ZM131.159 54.1755V54.8487H131.609L131.781 54.4319L131.159 54.1755ZM127.704 54.1755L127.082 54.4331L127.254 54.8487H127.704V54.1755ZM121.578 39.3808L122.2 39.1233L120.905 39.3808H121.578ZM121.578 54.1755V54.8487H122.251V54.1755H121.578ZM117.016 54.1755H116.342V54.8487H117.016V54.1755ZM117.016 31.4295V30.7563H116.342V31.4295H117.016ZM122.197 31.4295L122.816 31.1648L122.641 30.7563H122.197V31.4295ZM129.431 48.3424L128.812 48.6071L129.431 50.054L130.05 48.6071L129.431 48.3424ZM136.666 31.4295V30.7563H136.222L136.047 31.1648L136.666 31.4295ZM141.141 31.4295V54.1755H142.488V31.4295H141.141ZM141.815 53.5023H137.252V54.8487H141.815V53.5023ZM137.926 54.1755V39.3808H136.579V54.1755H137.926ZM136.63 39.1244L130.536 53.9191L131.781 54.4319L137.875 39.6372L136.63 39.1244ZM131.159 53.5023H127.704V54.8487H131.159V53.5023ZM128.326 53.918L122.2 39.1233L120.956 39.6384L127.082 54.4331L128.326 53.918ZM120.905 39.3808V54.1755H122.251V39.3808H120.905ZM121.578 53.5023H117.016V54.8487H121.578V53.5023ZM117.689 54.1755V31.4295H116.342V54.1755H117.689ZM117.016 32.1027H122.197V30.7563H117.016V32.1027ZM121.578 31.6942L128.812 48.6071L130.05 48.0776L122.816 31.1648L121.578 31.6942ZM130.05 48.6071L137.285 31.6942L136.047 31.1648L128.812 48.0776L130.05 48.6071ZM136.666 32.1027H141.815V30.7563H136.666V32.1027ZM146.227 40.2281L145.631 39.9161L145.627 39.9234L146.227 40.2281ZM149.193 36.9694L148.845 36.393L148.841 36.3957L149.193 36.9694ZM156.916 36.6435L156.595 37.235L156.6 37.2378L156.916 36.6435ZM159.36 38.6965L158.818 39.0958L160.033 40.7449V38.6965H159.36ZM159.36 36.1221V35.4489H158.687V36.1221H159.36ZM163.955 36.1221H164.628V35.4489H163.955V36.1221ZM163.955 54.1755V54.8487H164.628V54.1755H163.955ZM159.36 54.1755H158.687V54.8487H159.36V54.1755ZM159.36 51.5359H160.033V49.3809L158.807 51.1528L159.36 51.5359ZM156.916 53.6541L157.232 54.2484L157.237 54.246L156.916 53.6541ZM149.193 53.2956L148.833 53.8648L148.838 53.8676L149.193 53.2956ZM146.227 50.0043L145.625 50.3054L145.631 50.3163L146.227 50.0043ZM158.708 42.3137L158.116 42.6338L158.12 42.6406L158.708 42.3137ZM156.949 40.4888L156.607 41.069L156.614 41.0728L156.62 41.0764L156.949 40.4888ZM152.223 40.4562L151.888 39.8728L151.888 39.8728L152.223 40.4562ZM150.464 42.2811L149.878 41.9488L149.875 41.9542L150.464 42.2811ZM150.464 47.9513L149.868 48.2648L149.873 48.2743L149.878 48.2836L150.464 47.9513ZM152.223 49.8088L151.875 50.3845L151.882 50.389L152.223 49.8088ZM156.949 49.8414L157.277 50.429L157.284 50.4254L157.29 50.4216L156.949 49.8414ZM158.708 48.0165L159.297 48.3434L159.301 48.3366L158.708 48.0165ZM145.825 45.0836C145.825 43.3484 146.165 41.8371 146.828 40.5328L145.627 39.9234C144.855 41.4433 144.479 43.169 144.479 45.0836H145.825ZM146.824 40.5401C147.512 39.2249 148.42 38.2338 149.545 37.543L148.841 36.3957C147.489 37.2257 146.42 38.407 145.631 39.9161L146.824 40.5401ZM149.541 37.5457C150.691 36.8518 151.971 36.502 153.397 36.502V35.1556C151.738 35.1556 150.215 35.5662 148.845 36.393L149.541 37.5457ZM153.397 36.502C154.652 36.502 155.711 36.7545 156.595 37.2349L157.238 36.052C156.123 35.4462 154.835 35.1556 153.397 35.1556V36.502ZM156.6 37.2378C157.544 37.7397 158.277 38.3611 158.818 39.0958L159.902 38.2972C159.227 37.3807 158.331 36.6335 157.232 36.0492L156.6 37.2378ZM160.033 38.6965V36.1221H158.687V38.6965H160.033ZM159.36 36.7952H163.955V35.4489H159.36V36.7952ZM163.282 36.1221V54.1755H164.628V36.1221H163.282ZM163.955 53.5023H159.36V54.8487H163.955V53.5023ZM160.033 54.1755V51.5359H158.687V54.1755H160.033ZM158.807 51.1528C158.289 51.9009 157.559 52.5401 156.595 53.0622L157.237 54.246C158.358 53.6385 159.258 52.8655 159.914 51.9191L158.807 51.1528ZM156.6 53.0598C155.691 53.5432 154.619 53.7956 153.364 53.7956V55.142C154.803 55.142 156.099 54.8512 157.232 54.2484L156.6 53.0598ZM153.364 53.7956C151.965 53.7956 150.698 53.4379 149.548 52.7237L148.838 53.8676C150.207 54.7176 151.721 55.142 153.364 55.142V53.7956ZM149.552 52.7265C148.423 52.0132 147.513 51.0089 146.824 49.6923L145.631 50.3163C146.42 51.824 147.486 53.0139 148.833 53.8648L149.552 52.7265ZM146.829 49.7033C146.166 48.3762 145.825 46.8416 145.825 45.0836H144.479C144.479 47.0188 144.855 48.7648 145.625 50.3054L146.829 49.7033ZM160.033 45.1488C160.033 43.9534 159.799 42.89 159.297 41.9868L158.12 42.6406C158.487 43.3015 158.687 44.1283 158.687 45.1488H160.033ZM159.301 41.9936C158.81 41.0867 158.136 40.3813 157.277 39.9012L156.62 41.0764C157.238 41.4219 157.737 41.933 158.116 42.6338L159.301 41.9936ZM157.29 39.9086C156.449 39.4139 155.538 39.1639 154.57 39.1639V40.5102C155.296 40.5102 155.971 40.6946 156.607 41.069L157.29 39.9086ZM154.57 39.1639C153.608 39.1639 152.709 39.3998 151.888 39.8728L152.559 41.0396C153.172 40.6871 153.837 40.5102 154.57 40.5102V39.1639ZM151.888 39.8728C151.055 40.3523 150.387 41.0531 149.878 41.9488L151.049 42.6134C151.453 41.9015 151.958 41.3856 152.559 41.0396L151.888 39.8728ZM149.875 41.9542C149.375 42.8556 149.139 43.9073 149.139 45.0836H150.485C150.485 44.0874 150.684 43.2708 151.052 42.608L149.875 41.9542ZM149.139 45.0836C149.139 46.2611 149.375 47.3278 149.868 48.2648L151.059 47.6378C150.684 46.9237 150.485 46.0786 150.485 45.0836H149.139ZM149.878 48.2836C150.385 49.1769 151.049 49.8844 151.875 50.3845L152.572 49.2331C151.964 48.8642 151.455 48.3333 151.049 47.619L149.878 48.2836ZM151.882 50.389C152.72 50.882 153.62 51.1337 154.57 51.1337V49.7874C153.869 49.7874 153.204 49.6046 152.565 49.2286L151.882 50.389ZM154.57 51.1337C155.532 51.1337 156.438 50.898 157.277 50.429L156.62 49.2537C155.982 49.6104 155.302 49.7874 154.57 49.7874V51.1337ZM157.29 50.4216C158.137 49.9235 158.807 49.2256 159.297 48.3434L158.12 47.6896C157.741 48.3715 157.238 48.8903 156.607 49.2612L157.29 50.4216ZM159.301 48.3366C159.798 47.4156 160.033 46.345 160.033 45.1488H158.687C158.687 46.1686 158.487 47.0097 158.116 47.6964L159.301 48.3366ZM183.629 37.9144L183.145 38.3827L183.149 38.3865L183.629 37.9144ZM185.617 54.1755V54.8487H186.29V54.1755H185.617ZM181.055 54.1755H180.381V54.8487H181.055V54.1755ZM179.979 40.9124L179.483 41.3674L179.489 41.3742L179.979 40.9124ZM174.048 40.9124L173.559 40.4502L173.559 40.4506L174.048 40.9124ZM172.973 54.1755V54.8487H173.646V54.1755H172.973ZM168.411 54.1755H167.738V54.8487H168.411V54.1755ZM168.411 36.1221V35.4489H167.738V36.1221H168.411ZM172.973 36.1221H173.646V35.4489H172.973V36.1221ZM172.973 38.3706H172.3V40.3326L173.504 38.7839L172.973 38.3706ZM175.287 36.5457L175.571 37.1561L175.577 37.1532L175.287 36.5457ZM178.415 36.5345C180.409 36.5345 181.964 37.1624 183.145 38.3827L184.113 37.4461C182.644 35.9291 180.722 35.1882 178.415 35.1882V36.5345ZM183.149 38.3865C184.318 39.5742 184.944 41.275 184.944 43.5846H186.29C186.29 41.0278 185.591 38.9485 184.109 37.4423L183.149 38.3865ZM184.944 43.5846V54.1755H186.29V43.5846H184.944ZM185.617 53.5023H181.055V54.8487H185.617V53.5023ZM181.728 54.1755V44.2038H180.381V54.1755H181.728ZM181.728 44.2038C181.728 42.663 181.342 41.3762 180.469 40.4506L179.489 41.3742C180.051 41.9694 180.381 42.8769 180.381 44.2038H181.728ZM180.476 40.4576C179.609 39.5128 178.439 39.0661 177.046 39.0661V40.4125C178.131 40.4125 178.915 40.7479 179.483 41.3673L180.476 40.4576ZM177.046 39.0661C175.636 39.0661 174.447 39.5103 173.559 40.4502L174.538 41.3746C175.127 40.7504 175.937 40.4125 177.046 40.4125V39.0661ZM173.559 40.4506C172.686 41.3762 172.3 42.663 172.3 44.2038H173.646C173.646 42.8769 173.977 41.9694 174.538 41.3742L173.559 40.4506ZM172.3 44.2038V54.1755H173.646V44.2038H172.3ZM172.973 53.5023H168.411V54.8487H172.973V53.5023ZM169.084 54.1755V36.1221H167.738V54.1755H169.084ZM168.411 36.7952H172.973V35.4489H168.411V36.7952ZM172.3 36.1221V38.3706H173.646V36.1221H172.3ZM173.504 38.7839C174.044 38.0896 174.729 37.5473 175.571 37.1561L175.003 35.9353C173.976 36.4131 173.118 37.0874 172.442 37.9573L173.504 38.7839ZM175.577 37.1532C176.436 36.7431 177.379 36.5345 178.415 36.5345V35.1882C177.192 35.1882 176.049 35.4359 174.997 35.9382L175.577 37.1532ZM190.249 33.2218L189.773 33.6978L189.783 33.7077L189.793 33.7172L190.249 33.2218ZM190.249 29.4091L190.714 29.8951L190.715 29.8947L190.249 29.4091ZM194.257 29.4091L193.781 29.8851L193.791 29.895L193.801 29.9045L194.257 29.4091ZM194.257 33.2218L194.723 33.7078L194.723 33.7074L194.257 33.2218ZM194.518 36.1221H195.191V35.4489H194.518V36.1221ZM194.518 54.1755V54.8487H195.191V54.1755H194.518ZM189.955 54.1755H189.282V54.8487H189.955V54.1755ZM189.955 36.1221V35.4489H189.282V36.1221H189.955ZM192.269 33.2981C191.618 33.2981 191.112 33.1011 190.704 32.7264L189.793 33.7172C190.472 34.3418 191.313 34.6445 192.269 34.6445V33.2981ZM190.725 32.7458C190.334 32.355 190.14 31.8872 190.14 31.2991H188.793C188.793 32.2318 189.121 33.0458 189.773 33.6978L190.725 32.7458ZM190.14 31.2991C190.14 30.7114 190.333 30.2605 190.714 29.8951L189.783 28.9231C189.121 29.557 188.793 30.3661 188.793 31.2991H190.14ZM190.715 29.8947C191.124 29.5023 191.626 29.3001 192.269 29.3001V27.9538C191.304 27.9538 190.46 28.273 189.782 28.9235L190.715 29.8947ZM192.269 29.3001C192.912 29.3001 193.398 29.5019 193.781 29.8851L194.733 28.9331C194.073 28.2734 193.234 27.9538 192.269 27.9538V29.3001ZM193.801 29.9045C194.201 30.2724 194.398 30.7206 194.398 31.2991H195.745C195.745 30.357 195.399 29.5451 194.713 28.9137L193.801 29.9045ZM194.398 31.2991C194.398 31.8783 194.2 32.3431 193.791 32.7362L194.723 33.7074C195.4 33.0577 195.745 32.2408 195.745 31.2991H194.398ZM193.791 32.7358C193.41 33.1014 192.921 33.2981 192.269 33.2981V34.6445C193.225 34.6445 194.061 34.3416 194.723 33.7078L193.791 32.7358ZM193.844 36.1221V54.1755H195.191V36.1221H193.844ZM194.518 53.5023H189.955V54.8487H194.518V53.5023ZM190.629 54.1755V36.1221H189.282V54.1755H190.629ZM189.955 36.7952H194.518V35.4489H189.955V36.7952ZM198.927 40.2281L198.331 39.9161L198.327 39.9234L198.927 40.2281ZM201.893 36.9694L201.545 36.393L201.541 36.3957L201.893 36.9694ZM209.616 36.6435L209.295 37.235L209.3 37.2378L209.616 36.6435ZM212.06 38.6965L211.518 39.0958L212.733 40.7449V38.6965H212.06ZM212.06 36.1221V35.4489H211.387V36.1221H212.06ZM216.655 36.1221H217.328V35.4489H216.655V36.1221ZM216.655 54.1755V54.8487H217.328V54.1755H216.655ZM212.06 54.1755H211.387V54.8487H212.06V54.1755ZM212.06 51.5359H212.733V49.3809L211.507 51.1528L212.06 51.5359ZM209.616 53.6541L209.932 54.2484L209.937 54.246L209.616 53.6541ZM201.893 53.2956L201.533 53.8648L201.538 53.8676L201.893 53.2956ZM198.927 50.0043L198.325 50.3054L198.331 50.3163L198.927 50.0043ZM211.408 42.3137L210.816 42.6338L210.82 42.6406L211.408 42.3137ZM209.649 40.4888L209.307 41.069L209.314 41.0728L209.32 41.0764L209.649 40.4888ZM204.923 40.4562L204.588 39.8728L204.588 39.8728L204.923 40.4562ZM203.164 42.2811L202.578 41.9488L202.575 41.9542L203.164 42.2811ZM203.164 47.9513L202.568 48.2648L202.573 48.2743L202.578 48.2836L203.164 47.9513ZM204.923 49.8088L204.574 50.3845L204.582 50.389L204.923 49.8088ZM209.649 49.8414L209.977 50.429L209.983 50.4254L209.99 50.4216L209.649 49.8414ZM211.408 48.0165L211.997 48.3434L212.001 48.3366L211.408 48.0165ZM198.525 45.0836C198.525 43.3484 198.865 41.8371 199.528 40.5328L198.327 39.9234C197.555 41.4433 197.179 43.169 197.179 45.0836H198.525ZM199.524 40.5401C200.212 39.2249 201.12 38.2338 202.245 37.543L201.541 36.3957C200.189 37.2257 199.12 38.407 198.331 39.9161L199.524 40.5401ZM202.241 37.5457C203.391 36.8518 204.671 36.502 206.097 36.502V35.1556C204.438 35.1556 202.915 35.5662 201.545 36.393L202.241 37.5457ZM206.097 36.502C207.352 36.502 208.411 36.7545 209.295 37.2349L209.937 36.052C208.823 35.4462 207.535 35.1556 206.097 35.1556V36.502ZM209.3 37.2378C210.243 37.7397 210.977 38.3611 211.518 39.0958L212.602 38.2972C211.927 37.3807 211.031 36.6335 209.932 36.0492L209.3 37.2378ZM212.733 38.6965V36.1221H211.387V38.6965H212.733ZM212.06 36.7952H216.655V35.4489H212.06V36.7952ZM215.982 36.1221V54.1755H217.328V36.1221H215.982ZM216.655 53.5023H212.06V54.8487H216.655V53.5023ZM212.733 54.1755V51.5359H211.387V54.1755H212.733ZM211.507 51.1528C210.989 51.9009 210.259 52.5401 209.295 53.0622L209.937 54.246C211.058 53.6385 211.958 52.8655 212.614 51.9191L211.507 51.1528ZM209.3 53.0598C208.391 53.5432 207.319 53.7956 206.064 53.7956V55.142C207.503 55.142 208.799 54.8512 209.932 54.2484L209.3 53.0598ZM206.064 53.7956C204.665 53.7956 203.398 53.4379 202.248 52.7237L201.538 53.8676C202.907 54.7176 204.421 55.142 206.064 55.142V53.7956ZM202.252 52.7265C201.123 52.0132 200.212 51.0089 199.524 49.6923L198.331 50.3163C199.119 51.824 200.186 53.0139 201.533 53.8648L202.252 52.7265ZM199.529 49.7033C198.866 48.3762 198.525 46.8416 198.525 45.0836H197.179C197.179 47.0188 197.555 48.7648 198.325 50.3054L199.529 49.7033ZM212.733 45.1488C212.733 43.9534 212.499 42.89 211.997 41.9868L210.82 42.6406C211.187 43.3015 211.387 44.1283 211.387 45.1488H212.733ZM212.001 41.9936C211.51 41.0867 210.836 40.3813 209.977 39.9012L209.32 41.0764C209.938 41.4219 210.437 41.933 210.816 42.6338L212.001 41.9936ZM209.99 39.9086C209.149 39.4139 208.238 39.1639 207.27 39.1639V40.5102C207.996 40.5102 208.671 40.6946 209.307 41.069L209.99 39.9086ZM207.27 39.1639C206.308 39.1639 205.409 39.3998 204.588 39.8728L205.259 41.0396C205.872 40.6871 206.537 40.5102 207.27 40.5102V39.1639ZM204.588 39.8728C203.755 40.3523 203.087 41.0531 202.578 41.9488L203.749 42.6134C204.153 41.9015 204.658 41.3856 205.259 41.0396L204.588 39.8728ZM202.575 41.9542C202.074 42.8556 201.839 43.9073 201.839 45.0836H203.185C203.185 44.0874 203.384 43.2708 203.752 42.608L202.575 41.9542ZM201.839 45.0836C201.839 46.2611 202.075 47.3278 202.568 48.2648L203.759 47.6378C203.384 46.9237 203.185 46.0786 203.185 45.0836H201.839ZM202.578 48.2836C203.085 49.1769 203.749 49.8844 204.575 50.3845L205.272 49.2331C204.664 48.8642 204.155 48.3333 203.749 47.619L202.578 48.2836ZM204.582 50.389C205.42 50.882 206.319 51.1337 207.27 51.1337V49.7874C206.569 49.7874 205.904 49.6046 205.265 49.2286L204.582 50.389ZM207.27 51.1337C208.232 51.1337 209.138 50.898 209.977 50.429L209.32 49.2537C208.682 49.6104 208.002 49.7874 207.27 49.7874V51.1337ZM209.99 50.4216C210.837 49.9235 211.507 49.2256 211.997 48.3434L210.82 47.6896C210.441 48.3715 209.938 48.8903 209.307 49.2612L209.99 50.4216ZM212.001 48.3366C212.498 47.4156 212.733 46.345 212.733 45.1488H211.387C211.387 46.1686 211.187 47.0097 210.816 47.6964L212.001 48.3366Z" fill="white" mask="url(#path-8-outside-1_4_16)"/>
</svg>
