<svg width="838" height="337" viewBox="0 0 838 337" fill="none" xmlns="http://www.w3.org/2000/svg">
<path d="M762.081 260.759L788.196 67.51H771.221L745.106 245.091H726.844L724.428 260.759H762.081Z" fill="#CAAA00"/>
<path d="M238.479 260.759H724.428L726.844 245.091H126.658L130.818 260.759H238.479Z" fill="#CAAA00"/>
<path d="M163.086 278.604L285.486 333.881L251.735 281.38L163.086 278.604Z" fill="#DEBC08"/>
<path d="M163.086 278.604L251.735 281.38L238.479 260.759H130.818L131.805 264.477L163.086 278.604Z" fill="#DEBC08"/>
<path d="M754.228 67.51H79.5035L126.658 245.091H726.844L754.228 67.51Z" fill="#FFD600"/>
<path d="M745.106 245.091L771.221 67.51H754.228L726.844 245.091H745.106Z" fill="#FFD600"/>
<path d="M771.755 267.614L837.556 288.541L778.247 336.357L771.755 267.614Z" fill="black"/>
<path d="M774.086 258.272L786.236 224.892L809.348 253.983L774.086 258.272Z" fill="black"/>
<path d="M42.2391 0.896362L72.2881 66.4401L0.501129 59.6914L42.2391 0.896362Z" fill="black"/>
<path d="M84.3483 55.8387L84.1482 18.2755L116.97 37.2146L84.3483 55.8387Z" fill="black"/>
<path d="M25.4645 84.1804L60.8698 77.7851L49.3067 111.124L25.4645 84.1804Z" fill="black"/>
<path d="M721.146 282.648L752.998 270.543L746.367 305.561L721.146 282.648Z" fill="black"/>
</svg>
